<svg width="18" height="13" viewBox="0 0 18 13" fill="none" xmlns="http://www.w3.org/2000/svg">
<path d="M0.5 1.25C0.5 1.05109 0.579018 0.860322 0.71967 0.71967C0.860322 0.579018 1.05109 0.5 1.25 0.5H1.808C2.758 0.5 3.328 1.139 3.653 1.733C3.87 2.129 4.027 2.588 4.15 3.004C4.18327 3.00137 4.21663 3.00004 4.25 3H16.748C17.578 3 18.178 3.794 17.95 4.593L16.122 11.002C15.9581 11.5769 15.6114 12.0827 15.1343 12.4428C14.6572 12.803 14.0758 12.9979 13.478 12.998H7.53C6.92749 12.998 6.34165 12.8002 5.86252 12.4349C5.3834 12.0696 5.0375 11.557 4.878 10.976L4.118 8.204L2.858 3.956L2.857 3.948C2.701 3.381 2.555 2.85 2.337 2.454C2.128 2.069 1.96 2 1.809 2H1.25C1.05109 2 0.860322 1.92098 0.71967 1.78033C0.579018 1.63968 0.5 1.44891 0.5 1.25ZM5.573 7.84L6.324 10.579C6.474 11.121 6.967 11.498 7.53 11.498H13.478C13.7497 11.498 14.014 11.4095 14.2309 11.2458C14.4478 11.0821 14.6054 10.8523 14.68 10.591L16.417 4.5H4.585L5.559 7.787L5.573 7.84Z" fill="white"/>
</svg>
