<svg width="62" height="70" viewBox="0 0 62 70" fill="none" xmlns="http://www.w3.org/2000/svg">
<path d="M42.0746 67.4142V8.34504C42.0746 6.91687 40.9169 5.75928 39.4887 5.75928H3.3758C1.94764 5.75928 0.790039 6.91701 0.790039 8.34504V67.4142C0.790039 68.8424 1.94777 70 3.3758 70H39.4888C40.9169 70 42.0746 68.8423 42.0746 67.4142Z" fill="#FB2E86"/>
<path d="M47.9667 5.75909H39.3125C40.7407 5.75909 41.8984 6.91683 41.8984 8.34486V67.4141C41.8984 68.8422 40.7407 69.9998 39.3125 69.9998H47.9667C49.3948 69.9998 50.5526 68.8421 50.5526 67.4141V8.34499C50.5526 6.91683 49.3948 5.75909 47.9667 5.75909Z" fill="#FB2E86"/>
<path d="M5.0166 64.8493V10.9099C5.0166 10.3994 5.43045 9.98566 5.94082 9.98566H45.4022C45.9127 9.98566 46.3264 10.3995 46.3264 10.9099V64.8493C46.3264 65.3598 45.9126 65.7735 45.4022 65.7735H5.94082C5.43031 65.7735 5.0166 65.3598 5.0166 64.8493Z" fill="#F5F5F5"/>
<path d="M45.4022 9.98566H36.748C37.2586 9.98566 37.6723 10.3995 37.6723 10.9099V64.8493C37.6723 65.3598 37.2584 65.7735 36.748 65.7735H45.4022C45.9127 65.7735 46.3264 65.3596 46.3264 64.8493V10.9099C46.3264 10.3995 45.9127 9.98566 45.4022 9.98566Z" fill="#EAEAEA"/>
<path d="M31.1645 3.21809V1.85678C31.1645 0.831387 30.3333 0 29.3077 0H22.0347C21.0092 0 20.1779 0.831387 20.1779 1.85678V3.21809C20.1779 3.6374 19.8379 3.97742 19.4186 3.97742H16.3916C15.3847 3.97742 14.5684 4.79377 14.5684 5.8007V9.98566H36.7741V5.8007C36.7741 4.79377 35.9577 3.97742 34.9508 3.97742H31.9238C31.5045 3.97742 31.1645 3.6374 31.1645 3.21809Z" fill="#C2D0DA"/>
<path d="M10.3926 24.9911V16.8511C10.3926 15.9493 11.1238 15.2181 12.0255 15.2181H20.1655C21.0673 15.2181 21.7985 15.9493 21.7985 16.8511V24.9911C21.7985 25.8929 21.0673 26.624 20.1655 26.624H12.0255C11.1236 26.624 10.3926 25.8929 10.3926 24.9911Z" fill="#FB2E86"/>
<path d="M10.3926 41.9497V33.8097C10.3926 32.9079 11.1238 32.1768 12.0255 32.1768H20.1655C21.0673 32.1768 21.7985 32.9079 21.7985 33.8097V41.9497C21.7985 42.8515 21.0673 43.5827 20.1655 43.5827H12.0255C11.1236 43.5827 10.3926 42.8515 10.3926 41.9497Z" fill="#FB2E86"/>
<path d="M10.3926 58.9081V50.7682C10.3926 49.8664 11.1238 49.1352 12.0255 49.1352H20.1655C21.0673 49.1352 21.7985 49.8664 21.7985 50.7682V58.9081C21.7985 59.8099 21.0673 60.5411 20.1655 60.5411H12.0255C11.1236 60.5411 10.3926 59.8101 10.3926 58.9081Z" fill="#FB2E86"/>
<path d="M15.407 23.8361C15.4058 23.8361 15.4047 23.8361 15.4035 23.8361C14.9371 23.835 14.4948 23.6091 14.2202 23.2322L12.9867 21.5383C12.6432 21.0666 12.7471 20.4058 13.2188 20.0624C13.6905 19.7191 14.3513 19.823 14.6946 20.2945L15.4097 21.2769L17.5009 18.4358C17.8468 17.9659 18.5079 17.8656 18.9777 18.2114C19.4476 18.5571 19.5481 19.2184 19.2022 19.6883L16.5892 23.2382C16.3137 23.6127 15.8719 23.8361 15.407 23.8361Z" fill="#F6F9F9"/>
<path d="M15.4069 41.1636C15.4055 41.1636 15.4043 41.1636 15.403 41.1636C14.9367 41.1624 14.4944 40.9367 14.2199 40.5595L12.9867 38.8658C12.6432 38.3941 12.7471 37.7334 13.2188 37.3899C13.6905 37.0466 14.3513 37.1505 14.6946 37.6221L15.4097 38.6044L17.5009 35.7634C17.8468 35.2936 18.5079 35.1931 18.9777 35.5389C19.4476 35.8847 19.5481 36.546 19.2022 37.0159L16.5892 40.5658C16.3137 40.9405 15.8719 41.1636 15.4069 41.1636Z" fill="#F6F9F9"/>
<path d="M15.4068 57.7534C15.4056 57.7534 15.4044 57.7534 15.4033 57.7533C14.9371 57.7522 14.4946 57.5265 14.2201 57.1497L12.9866 55.4555C12.6432 54.9838 12.7472 54.3232 13.2189 53.9797C13.6909 53.6363 14.3514 53.7405 14.6947 54.212L15.4097 55.1942L17.5009 52.3532C17.8468 51.8834 18.508 51.7829 18.9778 52.1287C19.4477 52.4744 19.5482 53.1357 19.2023 53.6057L16.5893 57.1556C16.3135 57.53 15.8718 57.7534 15.4068 57.7534Z" fill="#F6F9F9"/>
<path d="M40.1179 19.7702H27.0592C26.4758 19.7702 26.0029 19.2973 26.0029 18.7139C26.0029 18.1306 26.4758 17.6577 27.0592 17.6577H40.1179C40.7013 17.6577 41.1742 18.1306 41.1742 18.7139C41.1742 19.2973 40.7013 19.7702 40.1179 19.7702Z" fill="#DDEAFB"/>
<path d="M33.5875 24.1845H27.0582C26.4749 24.1845 26.002 23.7116 26.002 23.1282C26.002 22.5448 26.4749 22.0719 27.0582 22.0719H33.5875C34.1709 22.0719 34.6438 22.5448 34.6438 23.1282C34.6438 23.7116 34.1709 24.1845 33.5875 24.1845Z" fill="#DDEAFB"/>
<path d="M35.82 36.7288H27.0582C26.4749 36.7288 26.002 36.2559 26.002 35.6725C26.002 35.0891 26.4749 34.6162 27.0582 34.6162H35.82C36.4034 34.6162 36.8763 35.0891 36.8763 35.6725C36.8763 36.2559 36.4034 36.7288 35.82 36.7288Z" fill="#DDEAFB"/>
<path d="M33.5875 41.143H27.0582C26.4749 41.143 26.002 40.6701 26.002 40.0867C26.002 39.5034 26.4749 39.0305 27.0582 39.0305H33.5875C34.1709 39.0305 34.6438 39.5034 34.6438 40.0867C34.6438 40.6701 34.1709 41.143 33.5875 41.143Z" fill="#DDEAFB"/>
<path d="M57.0996 27.5786L56.0625 26.2123L52.1817 23.7547L50.69 23.5197L30.8186 54.9203C30.3391 55.6775 29.9873 56.5083 29.7773 57.3795C32.1951 57.4094 34.3896 58.799 35.4504 60.9719C36.1482 60.4096 36.7488 59.7364 37.2282 58.9792L57.0996 27.5786Z" fill="#FC8086"/>
<path d="M59.9042 17.9091L58.2273 16.8472C56.9202 16.0193 55.1893 16.4083 54.3619 17.7158L52.8242 20.1457L53.3148 21.1345L57.981 24.0894L59.234 24.2046L60.7726 21.7732C61.5995 20.4664 61.2108 18.7365 59.9042 17.9091Z" fill="#8C9BA6"/>
<path d="M50.6934 23.5107L52.8295 20.1368L59.2404 24.1957L57.1042 27.5697L50.6934 23.5107Z" fill="#C9E2E7"/>
<path d="M35.4508 60.9721L29.7927 65.5316C28.9945 66.1749 27.8349 65.4406 28.0751 64.444L29.7778 57.3796C32.1955 57.4094 34.3901 58.7992 35.4508 60.9721Z" fill="#7C8B96"/>
<path d="M33.9665 59.0145L54.7968 26.1202L53.012 24.99L32.1816 57.8843C32.8352 58.1596 33.4381 58.5415 33.9665 59.0145Z" fill="#FB636F"/>
</svg>
