<svg width="50" height="50" viewBox="0 0 50 50" fill="none" xmlns="http://www.w3.org/2000/svg">
<path d="M25 50C38.8071 50 50 38.8071 50 25C50 11.1929 38.8071 0 25 0C11.1929 0 0 11.1929 0 25C0 38.8071 11.1929 50 25 50Z" fill="#FD5308"/>
<path d="M31.3592 49.1587C31.4683 49.1356 31.5772 49.1118 31.686 49.0873C32.4899 48.8654 33.2821 48.6034 34.0598 48.3023C34.8363 48 35.5972 47.659 36.3397 47.2807C37.0824 46.9027 37.8057 46.4877 38.5069 46.0374C39.208 45.5871 39.8862 45.102 40.5389 44.5839C41.192 44.0659 41.8188 43.5156 42.4169 42.935C43.0155 42.3541 43.5846 41.7436 44.1221 41.1058C44.6583 40.4678 45.1623 39.8034 45.6321 39.1151C46.103 38.4275 46.5392 37.7167 46.9392 36.9855C47.3395 36.2541 47.7031 35.5033 48.0284 34.7356C48.3528 33.9679 48.6386 33.1844 48.8848 32.3881C49.1304 31.5913 49.3359 30.7828 49.5008 29.9655C49.6671 29.1484 49.7924 28.3236 49.8764 27.494C49.8868 27.3263 49.8956 27.1586 49.9026 26.9907L36.4599 13.548C35.8949 12.983 35.1577 12.6991 34.4204 12.6991C33.683 12.6991 32.9459 12.983 32.3809 13.548L27.637 18.288L16.1098 16.2373L13.3905 18.9566L20.1889 25.755L17.6949 28.2602L15.4225 27.7832L12.7031 30.5026L19.5015 37.301L31.3592 49.1587Z" fill="#FD5308"/>
<path d="M34.4184 12.7C33.6811 12.7 32.9439 12.9839 32.3789 13.5489L27.6351 18.289L16.1079 16.2382L13.3885 18.9575L23.541 22.3868L17.6929 28.2612L15.4205 27.7841L12.7012 30.5035L17.4863 32.5167L19.4995 37.3019L22.2227 34.5825L21.7569 32.3289L27.6313 26.4545L31.0831 36.5882L33.8024 33.8689L31.7629 22.3229L36.4579 17.6279C37.585 16.4948 37.5877 14.6785 36.4579 13.5489C35.8929 12.9839 35.1558 12.7 34.4184 12.7V12.7Z" stroke="white" stroke-linecap="round" stroke-linejoin="round"/>
</svg>
